<svg xmlns="http://www.w3.org/2000/svg" viewBox="0 0 512 512" width="512" height="512" role="img" aria-label="Seasonly"><title>Seasonly</title><rect width="512" height="512" rx="112.64" fill="#1a1a1a"/><path transform="translate(131.5 408.78)" fill="#f7f7f7" d="M128.90 5.94L128.90 5.94Q104.72 5.94 86.58-1.74Q68.45-9.43 55.74-22.54L55.74-22.54L28.28 4.10L21.11 4.10L21.11-87.51L29.10-87.51Q33.81-70.70 41.70-55.43Q49.59-40.17 61.27-28.18Q72.96-16.19 88.94-9.22Q104.93-2.25 125.62-2.25L125.62-2.25Q146.12-2.25 160.97-9.43Q175.83-16.60 183.82-29.82Q191.82-43.04 191.82-61.27L191.82-61.27Q191.82-78.49 182.90-90.17Q173.99-101.85 159.33-110.46Q144.68-119.07 127.16-126.44Q109.64-133.82 92.12-142.22Q74.60-150.63 59.94-162.31Q45.29-173.99 36.38-190.79Q27.46-207.60 27.46-231.98L27.46-231.98Q27.46-256.58 39.76-274.40Q52.05-292.23 72.24-301.87Q92.42-311.50 116.20-311.50L116.20-311.50Q135.26-311.50 151.55-305.45Q167.84-299.41 180.14-287.31L180.14-287.31L207.19-311.50L213.95-311.50L213.95-222.35L205.96-222.35Q199.40-248.17 187.31-266.21Q175.22-284.24 158.21-293.46Q141.20-302.68 119.48-302.68L119.48-302.68Q93.24-302.68 79.31-289.77Q65.37-276.86 65.37-255.76L65.37-255.76Q65.37-240.39 74.19-229.63Q83.00-218.87 97.45-210.67Q111.89-202.47 129.31-194.99Q146.73-187.51 164.05-178.60Q181.37-169.68 195.81-157.49Q210.26-145.30 219.07-127.88Q227.88-110.46 227.88-85.66L227.88-85.66Q227.88-57.79 215.18-37.20Q202.47-16.60 180.14-5.33Q157.80 5.94 128.90 5.94Z"/></svg>
